<?xml version="1.0" encoding="UTF-8" standalone="no"?>
<!DOCTYPE svg PUBLIC "-//W3C//DTD SVG 1.1//EN"
 "http://www.w3.org/Graphics/SVG/1.1/DTD/svg11.dtd">
<!-- Generated by graphviz version 2.43.0 (0)
 -->
<!-- Title: No01622 Pages: 1 -->
<svg width="656pt" height="641pt"
 viewBox="0.00 0.00 656.38 641.43" xmlns="http://www.w3.org/2000/svg" xmlns:xlink="http://www.w3.org/1999/xlink">
<g id="graph0" class="graph" transform="scale(1 1) rotate(0) translate(4 637.43)">
<title>No01622</title>
<polygon fill="white" stroke="transparent" points="-4,4 -4,-637.43 652.38,-637.43 652.38,4 -4,4"/>
<!-- Start -->
<g id="node1" class="node">
<title>Start</title>
<polygon fill="#fde0ef" stroke="#555555" points="540.94,-633.43 344.94,-633.43 344.94,-580.43 540.94,-580.43 540.94,-633.43"/>
<text text-anchor="middle" x="442.94" y="-618.23" font-family="Times,serif" font-size="14.00">Problem 1622</text>
<text text-anchor="middle" x="442.94" y="-603.23" font-family="Times,serif" font-size="14.00">(zadachi.mccme.ru/2012/</text>
<text text-anchor="middle" x="442.94" y="-588.23" font-family="Times,serif" font-size="14.00">#&amp;task1622)</text>
</g>
<!-- P1 -->
<g id="node2" class="node">
<title>P1</title>
<polygon fill="#43bf71" stroke="#555555" points="343.94,-544.43 173.85,-526.43 343.94,-508.43 514.02,-526.43 343.94,-544.43"/>
<text text-anchor="middle" x="343.94" y="-522.73" font-family="Times,serif" font-size="14.00">3 points being collinear</text>
</g>
<!-- Start&#45;&gt;P1 -->
<g id="edge1" class="edge">
<title>Start&#45;&gt;P1</title>
<path fill="none" stroke="black" d="M410.52,-580.23C397.78,-570.13 383.32,-558.67 371.14,-549.01"/>
<polygon fill="black" stroke="black" points="373.13,-546.12 363.12,-542.65 368.78,-551.6 373.13,-546.12"/>
</g>
<!-- P7 -->
<g id="node8" class="node">
<title>P7</title>
<ellipse fill="#f9d057" stroke="#f94144" stroke-width="3" cx="535.94" cy="-260.61" rx="112.38" ry="18"/>
<text text-anchor="middle" x="535.94" y="-256.91" font-family="Helvetica,sans-Serif" font-weight="bold" font-size="14.00">Menelaus&#39; theorem.</text>
</g>
<!-- Start&#45;&gt;P7 -->
<g id="edge8" class="edge">
<title>Start&#45;&gt;P7</title>
<path fill="none" stroke="black" d="M490.19,-580.15C503.06,-570.69 515.48,-558.72 522.94,-544.43 566.95,-460.03 551.81,-341.48 541.83,-288.74"/>
<polygon fill="black" stroke="black" points="545.24,-287.94 539.86,-278.81 538.37,-289.3 545.24,-287.94"/>
</g>
<!-- P2 -->
<g id="node3" class="node">
<title>P2</title>
<polygon fill="#90d743" stroke="#555555" points="225.94,-461.46 39.94,-461.46 39.94,-408.46 225.94,-408.46 225.94,-461.46"/>
<text text-anchor="middle" x="132.94" y="-446.26" font-family="Times,serif" font-size="14.00">&quot;Through a given point,</text>
<text text-anchor="middle" x="132.94" y="-431.26" font-family="Times,serif" font-size="14.00">draw a line parallel to a</text>
<text text-anchor="middle" x="132.94" y="-416.26" font-family="Times,serif" font-size="14.00">given one&quot;</text>
</g>
<!-- P1&#45;&gt;P2 -->
<g id="edge2" class="edge">
<title>P1&#45;&gt;P2</title>
<path fill="none" stroke="black" d="M311.43,-511.65C282.57,-499.41 239.4,-481.11 202.75,-465.56"/>
<polygon fill="black" stroke="black" points="203.67,-462.15 193.1,-461.47 200.94,-468.6 203.67,-462.15"/>
</g>
<!-- P8 -->
<g id="node9" class="node">
<title>P8</title>
<ellipse fill="#f9d057" stroke="#555555" cx="378.94" cy="-434.96" rx="135.11" ry="37.45"/>
<text text-anchor="middle" x="378.94" y="-446.26" font-family="Times,serif" font-size="14.00">Thales&#39; theorem and the</text>
<text text-anchor="middle" x="378.94" y="-431.26" font-family="Times,serif" font-size="14.00">theorem on proportional</text>
<text text-anchor="middle" x="378.94" y="-416.26" font-family="Times,serif" font-size="14.00">segments.</text>
</g>
<!-- P1&#45;&gt;P8 -->
<g id="edge10" class="edge">
<title>P1&#45;&gt;P8</title>
<path fill="none" stroke="black" d="M350.36,-509.02C353.41,-501.22 357.22,-491.47 361.06,-481.66"/>
<polygon fill="black" stroke="black" points="364.34,-482.88 364.72,-472.29 357.82,-480.33 364.34,-482.88"/>
</g>
<!-- P3 -->
<g id="node4" class="node">
<title>P3</title>
<polygon fill="#90d743" stroke="#555555" points="232.94,-361.48 32.94,-361.48 32.94,-323.48 232.94,-323.48 232.94,-361.48"/>
<text text-anchor="middle" x="132.94" y="-346.28" font-family="Times,serif" font-size="14.00">Considering several pairs</text>
<text text-anchor="middle" x="132.94" y="-331.28" font-family="Times,serif" font-size="14.00">of similar triangles</text>
</g>
<!-- P2&#45;&gt;P3 -->
<g id="edge3" class="edge">
<title>P2&#45;&gt;P3</title>
<path fill="none" stroke="black" d="M132.94,-408.27C132.94,-396.91 132.94,-383.52 132.94,-371.86"/>
<polygon fill="black" stroke="black" points="136.44,-371.76 132.94,-361.76 129.44,-371.76 136.44,-371.76"/>
</g>
<!-- P4 -->
<g id="node5" class="node">
<title>P4</title>
<ellipse fill="#f9d057" stroke="#555555" cx="132.94" cy="-260.61" rx="118.59" ry="26.74"/>
<text text-anchor="middle" x="132.94" y="-264.41" font-family="Times,serif" font-size="14.00">Properties of parallel</text>
<text text-anchor="middle" x="132.94" y="-249.41" font-family="Times,serif" font-size="14.00">lines.</text>
</g>
<!-- P3&#45;&gt;P4 -->
<g id="edge4" class="edge">
<title>P3&#45;&gt;P4</title>
<path fill="none" stroke="black" d="M132.94,-323.36C132.94,-315.75 132.94,-306.62 132.94,-297.74"/>
<polygon fill="black" stroke="black" points="136.44,-297.54 132.94,-287.54 129.44,-297.54 136.44,-297.54"/>
</g>
<!-- P5 -->
<g id="node6" class="node">
<title>P5</title>
<ellipse fill="#f9d057" stroke="#555555" cx="132.94" cy="-170.87" rx="132.87" ry="26.74"/>
<text text-anchor="middle" x="132.94" y="-174.67" font-family="Times,serif" font-size="14.00">Criteria for similarity of</text>
<text text-anchor="middle" x="132.94" y="-159.67" font-family="Times,serif" font-size="14.00">triangles.</text>
</g>
<!-- P4&#45;&gt;P5 -->
<g id="edge5" class="edge">
<title>P4&#45;&gt;P5</title>
<path fill="none" stroke="black" d="M132.94,-233.29C132.94,-225.32 132.94,-216.43 132.94,-207.94"/>
<polygon fill="black" stroke="black" points="136.44,-207.87 132.94,-197.87 129.44,-207.87 136.44,-207.87"/>
</g>
<!-- P6 -->
<g id="node7" class="node">
<title>P6</title>
<polygon fill="#43bf71" stroke="#f94144" stroke-width="3" points="178.94,-108 45.88,-90 178.94,-72 311.99,-90 178.94,-108"/>
<text text-anchor="middle" x="178.94" y="-86.3" font-family="Helvetica,sans-Serif" font-weight="bold" font-size="14.00">Similar triangles</text>
</g>
<!-- P5&#45;&gt;P6 -->
<g id="edge6" class="edge">
<title>P5&#45;&gt;P6</title>
<path fill="none" stroke="black" d="M148,-144.05C153.29,-134.98 159.22,-124.81 164.46,-115.83"/>
<polygon fill="black" stroke="black" points="167.6,-117.39 169.61,-106.98 161.55,-113.86 167.6,-117.39"/>
</g>
<!-- Done -->
<g id="node11" class="node">
<title>Done</title>
<polygon fill="#cfe2f3" stroke="#555555" points="423.94,-36 347.94,-36 347.94,0 423.94,0 423.94,-36"/>
<text text-anchor="middle" x="385.94" y="-14.3" font-family="Times,serif" font-size="14.00">Solution</text>
</g>
<!-- P6&#45;&gt;Done -->
<g id="edge7" class="edge">
<title>P6&#45;&gt;Done</title>
<path fill="none" stroke="black" d="M214.99,-76.81C249.13,-65.26 300.59,-47.86 338.13,-35.17"/>
<polygon fill="black" stroke="black" points="339.49,-38.4 347.84,-31.88 337.25,-31.77 339.49,-38.4"/>
</g>
<!-- P7&#45;&gt;Done -->
<g id="edge9" class="edge">
<title>P7&#45;&gt;Done</title>
<path fill="none" stroke="black" d="M532.37,-242.24C527.06,-218.8 515.65,-176.25 496.94,-144 474.1,-104.64 437.6,-66.61 412.74,-43.04"/>
<polygon fill="black" stroke="black" points="415.12,-40.47 405.43,-36.2 410.34,-45.59 415.12,-40.47"/>
</g>
<!-- P9 -->
<g id="node10" class="node">
<title>P9</title>
<polygon fill="#90d743" stroke="#555555" points="488.44,-197.37 283.44,-197.37 283.44,-144.37 488.44,-144.37 488.44,-197.37"/>
<text text-anchor="middle" x="385.94" y="-182.17" font-family="Times,serif" font-size="14.00">Termwise addition or</text>
<text text-anchor="middle" x="385.94" y="-167.17" font-family="Times,serif" font-size="14.00">multiplication of</text>
<text text-anchor="middle" x="385.94" y="-152.17" font-family="Times,serif" font-size="14.00">equations and inequalities</text>
</g>
<!-- P8&#45;&gt;P9 -->
<g id="edge11" class="edge">
<title>P8&#45;&gt;P9</title>
<path fill="none" stroke="black" d="M379.92,-397.24C381.26,-347.1 383.64,-257.78 384.97,-207.97"/>
<polygon fill="black" stroke="black" points="388.48,-207.76 385.25,-197.67 381.48,-207.57 388.48,-207.76"/>
</g>
<!-- P9&#45;&gt;Done -->
<g id="edge12" class="edge">
<title>P9&#45;&gt;Done</title>
<path fill="none" stroke="black" d="M385.94,-144.28C385.94,-117.11 385.94,-74.34 385.94,-46.48"/>
<polygon fill="black" stroke="black" points="389.44,-46.24 385.94,-36.24 382.44,-46.24 389.44,-46.24"/>
</g>
</g>
</svg>
