<?xml version="1.0" encoding="UTF-8" standalone="no"?>
<!DOCTYPE svg PUBLIC "-//W3C//DTD SVG 1.1//EN"
 "http://www.w3.org/Graphics/SVG/1.1/DTD/svg11.dtd">
<!-- Generated by graphviz version 2.43.0 (0)
 -->
<!-- Title: No01204 Pages: 1 -->
<svg width="491pt" height="617pt"
 viewBox="0.00 0.00 491.32 617.48" xmlns="http://www.w3.org/2000/svg" xmlns:xlink="http://www.w3.org/1999/xlink">
<g id="graph0" class="graph" transform="scale(1 1) rotate(0) translate(4 613.48)">
<title>No01204</title>
<polygon fill="white" stroke="transparent" points="-4,4 -4,-613.48 487.32,-613.48 487.32,4 -4,4"/>
<!-- Start -->
<g id="node1" class="node">
<title>Start</title>
<polygon fill="#fde0ef" stroke="#555555" points="350.93,-609.48 154.93,-609.48 154.93,-556.48 350.93,-556.48 350.93,-609.48"/>
<text text-anchor="middle" x="252.93" y="-594.28" font-family="Times,serif" font-size="14.00">Problem 1204</text>
<text text-anchor="middle" x="252.93" y="-579.28" font-family="Times,serif" font-size="14.00">(zadachi.mccme.ru/2012/</text>
<text text-anchor="middle" x="252.93" y="-564.28" font-family="Times,serif" font-size="14.00">#&amp;task1204)</text>
</g>
<!-- P1 -->
<g id="node2" class="node">
<title>P1</title>
<polygon fill="#43bf71" stroke="#555555" points="187.93,-520.48 85.04,-502.48 187.93,-484.48 290.82,-502.48 187.93,-520.48"/>
<text text-anchor="middle" x="187.93" y="-498.78" font-family="Times,serif" font-size="14.00">Quadrilateral</text>
</g>
<!-- Start&#45;&gt;P1 -->
<g id="edge1" class="edge">
<title>Start&#45;&gt;P1</title>
<path fill="none" stroke="black" d="M231.65,-556.28C223.63,-546.59 214.58,-535.66 206.79,-526.26"/>
<polygon fill="black" stroke="black" points="209.41,-523.94 200.34,-518.46 204.02,-528.4 209.41,-523.94"/>
</g>
<!-- P7 -->
<g id="node8" class="node">
<title>P7</title>
<ellipse fill="#f9d057" stroke="#f94144" stroke-width="3" cx="368.93" cy="-421.98" rx="114.28" ry="18"/>
<text text-anchor="middle" x="368.93" y="-418.28" font-family="Helvetica,sans-Serif" font-weight="bold" font-size="14.00">Varignon&#39;s theorem.</text>
</g>
<!-- Start&#45;&gt;P7 -->
<g id="edge8" class="edge">
<title>Start&#45;&gt;P7</title>
<path fill="none" stroke="black" d="M272.81,-556.41C281.27,-545.42 291.17,-532.39 299.93,-520.48 317.73,-496.29 337.47,-468.27 351.26,-448.49"/>
<polygon fill="black" stroke="black" points="354.31,-450.23 357.15,-440.02 348.57,-446.23 354.31,-450.23"/>
</g>
<!-- P2 -->
<g id="node3" class="node">
<title>P2</title>
<polygon fill="#90d743" stroke="#555555" points="236.43,-448.48 41.43,-448.48 41.43,-395.48 236.43,-395.48 236.43,-448.48"/>
<text text-anchor="middle" x="138.93" y="-433.28" font-family="Times,serif" font-size="14.00">&quot;Join two given points by</text>
<text text-anchor="middle" x="138.93" y="-418.28" font-family="Times,serif" font-size="14.00">a segment&quot;, &quot;Extend a</text>
<text text-anchor="middle" x="138.93" y="-403.28" font-family="Times,serif" font-size="14.00">segment&quot;, etc.</text>
</g>
<!-- P1&#45;&gt;P2 -->
<g id="edge2" class="edge">
<title>P1&#45;&gt;P2</title>
<path fill="none" stroke="black" d="M178.25,-485.97C173.12,-477.75 166.59,-467.29 160.34,-457.28"/>
<polygon fill="black" stroke="black" points="163.22,-455.28 154.96,-448.66 157.29,-458.99 163.22,-455.28"/>
</g>
<!-- P3 -->
<g id="node4" class="node">
<title>P3</title>
<polygon fill="#43bf71" stroke="#f94144" stroke-width="3" points="159.93,-359.48 0.07,-341.48 159.93,-323.48 319.8,-341.48 159.93,-359.48"/>
<text text-anchor="middle" x="159.93" y="-337.78" font-family="Helvetica,sans-Serif" font-weight="bold" font-size="14.00">Midline of a triangle</text>
</g>
<!-- P2&#45;&gt;P3 -->
<g id="edge3" class="edge">
<title>P2&#45;&gt;P3</title>
<path fill="none" stroke="black" d="M145.81,-395.28C148.05,-386.88 150.55,-377.55 152.81,-369.09"/>
<polygon fill="black" stroke="black" points="156.22,-369.9 155.43,-359.33 149.46,-368.09 156.22,-369.9"/>
</g>
<!-- P4 -->
<g id="node5" class="node">
<title>P4</title>
<ellipse fill="#f9d057" stroke="#555555" cx="168.93" cy="-260.61" rx="113.27" ry="26.74"/>
<text text-anchor="middle" x="168.93" y="-264.41" font-family="Times,serif" font-size="14.00">Midline theorem for</text>
<text text-anchor="middle" x="168.93" y="-249.41" font-family="Times,serif" font-size="14.00">triangles.</text>
</g>
<!-- P3&#45;&gt;P4 -->
<g id="edge4" class="edge">
<title>P3&#45;&gt;P4</title>
<path fill="none" stroke="black" d="M161.89,-323.37C162.74,-315.88 163.78,-306.79 164.79,-297.91"/>
<polygon fill="black" stroke="black" points="168.3,-298.03 165.96,-287.69 161.35,-297.23 168.3,-298.03"/>
</g>
<!-- P5 -->
<g id="node6" class="node">
<title>P5</title>
<ellipse fill="#f9d057" stroke="#555555" cx="178.93" cy="-170.87" rx="141.34" ry="26.74"/>
<text text-anchor="middle" x="178.93" y="-174.67" font-family="Times,serif" font-size="14.00">Criteria and properties of</text>
<text text-anchor="middle" x="178.93" y="-159.67" font-family="Times,serif" font-size="14.00">a parallelogram.</text>
</g>
<!-- P4&#45;&gt;P5 -->
<g id="edge5" class="edge">
<title>P4&#45;&gt;P5</title>
<path fill="none" stroke="black" d="M171.93,-233.29C172.84,-225.32 173.86,-216.43 174.82,-207.94"/>
<polygon fill="black" stroke="black" points="178.31,-208.21 175.97,-197.87 171.36,-207.41 178.31,-208.21"/>
</g>
<!-- P6 -->
<g id="node7" class="node">
<title>P6</title>
<polygon fill="#43bf71" stroke="#f94144" stroke-width="3" points="196.93,-108 81.31,-90 196.93,-72 312.56,-90 196.93,-108"/>
<text text-anchor="middle" x="196.93" y="-86.3" font-family="Helvetica,sans-Serif" font-weight="bold" font-size="14.00">Parallelogram</text>
</g>
<!-- P5&#45;&gt;P6 -->
<g id="edge6" class="edge">
<title>P5&#45;&gt;P6</title>
<path fill="none" stroke="black" d="M184.93,-143.61C186.83,-135.29 188.93,-126.09 190.83,-117.74"/>
<polygon fill="black" stroke="black" points="194.3,-118.27 193.11,-107.74 187.47,-116.71 194.3,-118.27"/>
</g>
<!-- Done -->
<g id="node9" class="node">
<title>Done</title>
<polygon fill="#cfe2f3" stroke="#555555" points="306.93,-36 230.93,-36 230.93,0 306.93,0 306.93,-36"/>
<text text-anchor="middle" x="268.93" y="-14.3" font-family="Times,serif" font-size="14.00">Solution</text>
</g>
<!-- P6&#45;&gt;Done -->
<g id="edge7" class="edge">
<title>P6&#45;&gt;Done</title>
<path fill="none" stroke="black" d="M212.2,-74.15C221.44,-65.18 233.43,-53.52 244.01,-43.23"/>
<polygon fill="black" stroke="black" points="246.68,-45.52 251.41,-36.04 241.8,-40.5 246.68,-45.52"/>
</g>
<!-- P7&#45;&gt;Done -->
<g id="edge9" class="edge">
<title>P7&#45;&gt;Done</title>
<path fill="none" stroke="black" d="M366.97,-403.79C363.8,-374.6 357.93,-313.47 357.93,-261.61 357.93,-261.61 357.93,-261.61 357.93,-169.87 357.93,-123.52 346.9,-111.05 321.93,-72 315.26,-61.57 306.23,-51.57 297.52,-43.13"/>
<polygon fill="black" stroke="black" points="299.71,-40.39 290,-36.13 294.94,-45.51 299.71,-40.39"/>
</g>
</g>
</svg>
